<svg width="611" height="175" viewBox="0 0 611 175" fill="none" xmlns="http://www.w3.org/2000/svg">
<g clipPath="url(#clip0_120_483)">
<path d="M596.929 86.6011H588.103C587.999 80.6531 586.725 74.7844 584.355 69.3327C581.984 63.8809 578.564 58.9537 574.291 54.8344C570.018 50.7152 564.976 47.4851 559.456 45.3302C553.935 43.1752 548.045 42.1379 542.124 42.2777C529.901 42.1402 518.12 46.8645 509.352 55.4197L508.797 55.9156C508.022 54.8862 507.177 53.9126 506.266 53.002C502.767 49.7292 498.645 47.2018 494.148 45.5717C489.651 43.9417 484.871 43.2429 480.098 43.5174H449.61C447.765 43.5093 445.937 43.8673 444.23 44.5708C442.523 45.2743 440.971 46.3095 439.664 47.617C438.356 48.9245 437.319 50.4785 436.611 52.1899C435.903 53.9012 435.538 55.7363 435.539 57.5895V65.3383L429.799 51.7003C428.727 49.1393 426.924 46.9546 424.617 45.4212C422.311 43.8878 419.604 43.0745 416.838 43.0836H401.162C398.403 43.0703 395.703 43.8827 393.405 45.4174C391.108 46.9521 389.318 49.1394 388.263 51.7003L372.649 88.8947H357.158V57.8993C357.158 56.0462 356.793 54.2113 356.085 52.4999C355.377 50.7886 354.34 49.2346 353.032 47.927C351.725 46.6195 350.173 45.5842 348.466 44.8807C346.76 44.1771 344.931 43.8193 343.086 43.8275H326.608C324.763 43.8193 322.934 44.1771 321.227 44.8807C319.52 45.5842 317.969 46.6195 316.661 47.927C315.354 49.2346 314.316 50.7886 313.608 52.4999C312.901 54.2113 312.536 56.0462 312.536 57.8993V88.8947H303.155V57.8993C303.164 56.0198 302.798 54.1576 302.078 52.4226C301.358 50.6875 300.3 49.1149 298.965 47.7975C297.631 46.48 296.047 45.4445 294.307 44.752C292.568 44.0595 290.708 43.724 288.837 43.7654H272.358C269.578 43.7664 266.862 44.5981 264.554 46.1546C262.246 47.7111 260.451 49.9221 259.398 52.5062C250.606 45.6999 239.729 42.181 228.636 42.5543C217.542 42.9276 206.924 47.1697 198.606 54.5518C190.215 46.5513 179.005 42.2255 167.439 42.5256C161.451 42.4605 155.51 43.5886 149.959 45.8444C144.408 48.1001 139.357 51.439 135.099 55.6678C130.908 59.8687 127.592 64.8666 125.345 70.3694C123.099 75.8722 121.967 81.7696 122.015 87.7169C121.941 93.6454 123.047 99.5292 125.267 105.023C127.488 110.516 130.779 115.508 134.948 119.706C139.116 123.905 144.077 127.224 149.54 129.47C155.003 131.716 160.858 132.842 166.76 132.784C174.749 132.92 182.638 130.977 189.657 127.143C192.807 125.36 195.711 123.172 198.298 120.634C206.631 128.078 217.293 132.362 228.438 132.747C239.584 133.132 250.513 129.593 259.336 122.742C260.39 125.342 262.192 127.569 264.512 129.136C266.831 130.704 269.563 131.542 272.358 131.544H317.72C320.529 130.634 323.552 130.634 326.361 131.544H371.661C372.318 131.608 372.979 131.608 373.636 131.544C374.293 131.606 374.954 131.606 375.611 131.544H392.954C395.76 131.554 398.504 130.714 400.828 129.132C403.151 127.55 404.945 125.302 405.976 122.68L406.716 120.882H410.728L411.469 122.804C412.54 125.388 414.347 127.596 416.664 129.152C418.981 130.707 421.704 131.539 424.491 131.544H442.204C443.456 131.563 444.704 131.396 445.907 131.048C447.109 131.401 448.358 131.569 449.61 131.544H480.469C489.247 131.9 497.905 129.4 505.155 124.416C506.838 123.196 508.389 121.804 509.784 120.262C518.536 128.363 530.039 132.798 541.939 132.66C551.265 132.699 560.393 129.959 568.169 124.787C569.429 126.819 571.184 128.495 573.268 129.656C575.352 130.816 577.697 131.424 580.08 131.421H596.929C600.65 131.421 604.22 129.94 606.857 127.303C609.494 124.665 610.984 121.086 611 117.348V100.673C610.984 96.9352 609.494 93.356 606.857 90.7188C604.22 88.0816 600.65 86.6011 596.929 86.6011ZM167.809 89.3287H167.501C167.208 88.7553 167.08 88.1113 167.13 87.4689C167.088 86.8866 167.216 86.3045 167.501 85.7952C168.135 86.2677 168.697 86.8316 169.167 87.4689V87.7789C168.784 88.3532 168.328 88.8742 167.809 89.3287ZM231.255 87.6548C231.301 88.2741 231.126 88.8897 230.761 89.3906C230.761 89.3906 230.761 89.3906 230.205 89.3906C229.65 89.3906 229.033 87.4689 229.033 87.345C228.986 86.7258 229.161 86.1102 229.527 85.6092C229.527 85.6092 229.527 85.6092 230.02 85.6092C230.514 85.6092 231.255 87.283 231.255 87.593V87.6548ZM543.173 87.6548C543.22 88.2741 543.045 88.8897 542.679 89.3906C542.679 89.3906 542.679 89.3906 542.124 89.3906C541.569 89.3906 540.951 87.4689 540.951 87.345C540.905 86.7258 541.08 86.1102 541.445 85.6092C541.445 85.6092 541.445 85.6092 541.939 85.6092C542.433 85.6092 543.173 87.283 543.173 87.593V87.6548Z" fill="#1E212B"/>
<path d="M145.761 86.4774C145.76 82.3649 146.574 78.2934 148.156 74.5001C149.738 70.7069 152.055 67.2677 154.973 64.3829C157.891 61.4982 161.351 59.2257 165.152 57.6975C168.953 56.1693 173.019 55.4162 177.113 55.482C182.029 55.2439 186.925 56.2552 191.348 58.4224C195.771 60.5896 199.578 63.8425 202.417 67.8801L190.074 77.4886C188.638 75.356 186.708 73.6047 184.451 72.3847C182.194 71.1648 179.676 70.5125 177.113 70.4836C175.137 70.5539 173.196 71.0224 171.404 71.8613C169.612 72.7002 168.006 73.8923 166.682 75.367C165.357 76.8416 164.342 78.5687 163.695 80.4453C163.049 82.322 162.785 84.3099 162.918 86.2912C162.758 88.2874 163.003 90.2956 163.638 92.194C164.273 94.0925 165.284 95.842 166.611 97.3369C167.937 98.8318 169.552 100.041 171.357 100.891C173.162 101.742 175.12 102.216 177.113 102.285C179.773 102.271 182.388 101.596 184.725 100.32C187.062 99.0431 189.048 97.2053 190.506 94.9701L202.849 103.897C199.065 109.363 193.653 113.485 187.39 115.668C181.128 117.852 174.338 117.985 167.995 116.05C161.652 114.115 156.083 110.21 152.089 104.897C148.094 99.5832 145.878 93.1347 145.761 86.4774Z" fill="#A954F7"/>
<path d="M207.729 86.4774C207.777 82.3102 208.65 78.1941 210.299 74.3698C211.948 70.5455 214.339 67.0897 217.333 64.204C220.327 61.3183 223.863 59.0607 227.735 57.5632C231.607 56.0656 235.737 55.3582 239.884 55.482C244.029 55.332 248.162 56.0229 252.035 57.5132C255.908 59.0036 259.442 61.2629 262.426 64.1561C265.41 67.0494 267.783 70.5173 269.403 74.3524C271.023 78.1876 271.856 82.3114 271.854 86.4774C271.491 94.774 267.955 102.61 261.982 108.352C256.009 114.094 248.06 117.299 239.792 117.299C231.524 117.299 223.575 114.094 217.601 108.352C211.628 102.61 208.092 94.774 207.729 86.4774ZM255.067 86.4774C255.141 84.4032 254.801 82.3348 254.067 80.3945C253.334 78.4541 252.221 76.6808 250.795 75.179C249.369 73.6771 247.658 72.4769 245.763 71.6492C243.868 70.8216 241.827 70.3832 239.761 70.3598C237.716 70.3657 235.694 70.7879 233.817 71.601C231.94 72.4141 230.246 73.601 228.839 75.0902C227.431 76.5794 226.339 78.3398 225.628 80.2651C224.917 82.1903 224.602 84.2403 224.702 86.2912C224.619 88.3573 224.949 90.419 225.672 92.3551C226.395 94.2911 227.496 96.0624 228.911 97.5643C230.326 99.0663 232.025 100.269 233.91 101.101C235.795 101.933 237.826 102.377 239.884 102.409C241.936 102.411 243.968 101.995 245.855 101.186C247.743 100.378 249.448 99.1932 250.867 97.7042C252.286 96.2151 253.39 94.4523 254.112 92.5227C254.834 90.5931 255.158 88.5367 255.067 86.4774Z" fill="#A954F7"/>
<path d="M282.091 56.1635H298.569V101.417H327.391V115.923H282.091V56.1635Z" fill="#A954F7"/>
<path d="M336.094 56.1635H352.573V101.417H381.21V115.923H335.909L336.094 56.1635Z" fill="#A954F7"/>
<path d="M410.65 56.1635H426.573L451.877 116.356H434.226L429.844 105.694H406.885L402.627 116.356H385.284L410.65 56.1635ZM425.092 92.8L418.241 75.6286L412.069 92.6141L425.092 92.8Z" fill="#A954F7"/>
<path d="M459.288 56.1635H489.838C492.765 55.9202 495.712 56.2724 498.501 57.199C501.289 58.1257 503.864 59.6078 506.069 61.5566C507.324 62.8126 508.311 64.3126 508.969 65.9647C509.627 67.6169 509.942 69.3865 509.896 71.1653C509.956 74.0766 509.099 76.9325 507.448 79.3258C505.796 81.7192 503.435 83.5276 500.7 84.4933C504.087 85.1129 507.142 86.9275 509.315 89.6099C511.488 92.2923 512.635 95.6661 512.55 99.123C512.55 109.414 504.218 115.613 489.961 115.613H459.103L459.288 56.1635ZM485.764 79.9679C490.763 79.9679 493.541 78.2942 493.541 74.7607C493.541 71.5372 491.01 69.6774 486.073 69.6774H475.334V80.1539L485.764 79.9679ZM488.11 102.595C493.109 102.595 496.009 100.673 496.009 97.1393C496.009 93.9158 493.479 91.8082 487.924 91.8082H475.581V102.78L488.11 102.595Z" fill="#A954F7"/>
<path d="M519.645 86.4769C520.007 78.1802 523.543 70.3442 529.517 64.6021C535.49 58.86 543.439 55.6548 551.707 55.6548C559.975 55.6548 567.924 58.86 573.897 64.6021C579.87 70.3442 583.406 78.1802 583.769 86.4769C583.406 94.7735 579.87 102.609 573.897 108.351C567.924 114.094 559.975 117.299 551.707 117.299C543.439 117.299 535.49 114.094 529.517 108.351C523.543 102.609 520.007 94.7735 519.645 86.4769ZM566.92 86.4769C567.003 84.4005 566.669 82.3285 565.938 80.3843C565.208 78.4402 564.096 76.6636 562.668 75.1599C561.24 73.6562 559.525 72.4562 557.626 71.6315C555.728 70.8068 553.683 70.3742 551.614 70.3592C549.57 70.3652 547.548 70.7874 545.67 71.6005C543.793 72.4135 542.1 73.6005 540.692 75.0897C539.284 76.5789 538.192 78.3393 537.481 80.2646C536.77 82.1898 536.455 84.2398 536.555 86.2907C536.472 88.3619 536.804 90.4288 537.531 92.3689C538.258 94.309 539.364 96.083 540.786 97.5858C542.207 99.0886 543.914 100.29 545.806 101.118C547.698 101.946 549.736 102.385 551.799 102.408C553.849 102.411 555.877 101.995 557.762 101.186C559.646 100.376 561.348 99.1905 562.762 97.7004C564.176 96.2104 565.274 94.447 565.989 92.5176C566.703 90.5882 567.02 88.5331 566.92 86.4769Z" fill="#A954F7"/>
<path d="M589.818 99.557H606.667V116.17H589.818V99.557Z" fill="#A954F7"/>
<path d="M52.8298 175C39.0722 174.864 25.8979 169.398 16.055 159.743C6.2121 150.087 0.460545 136.987 -5.02709e-05 123.176C-0.368973 109.48 4.51382 96.1645 13.6395 85.9811C12.0684 84.0241 10.645 81.9519 9.38099 79.782C4.87503 71.6449 2.5641 62.4664 2.67719 53.156C2.79028 43.8455 5.32343 34.7265 10.0257 26.7022C14.728 18.678 21.4361 12.0271 29.4854 7.40862C37.5347 2.79018 46.6457 0.364444 55.9157 0.371848C69.7502 0.310826 83.0526 5.72215 92.946 15.4356C96.7143 19.0114 99.3197 23.647 100.421 28.7352C101.522 33.8233 101.068 39.1269 99.1177 43.9514C97.3085 48.4463 94.2967 52.3511 90.4156 55.2337C95.0827 59.3561 98.141 65.0089 99.0453 71.1851C99.9495 77.3612 98.641 83.6593 95.353 88.9567C96.9824 91.1071 98.467 93.3644 99.7966 95.7137C104.375 103.841 106.75 113.033 106.685 122.371C106.62 131.709 104.117 140.867 99.4259 148.929C94.7348 156.992 88.0198 163.677 79.9515 168.317C71.8833 172.957 62.7442 175.39 53.447 175.372L52.8298 175ZM53.2001 120.51C52.9926 120.51 52.7898 120.572 52.6173 120.688C52.4447 120.803 52.3102 120.968 52.2308 121.161C52.1514 121.353 52.1306 121.565 52.1711 121.769C52.2116 121.974 52.3115 122.162 52.4582 122.309C52.605 122.456 52.792 122.557 52.9955 122.597C53.199 122.638 53.41 122.617 53.6017 122.537C53.7934 122.458 53.9573 122.323 54.0725 122.149C54.1878 121.976 54.2493 121.772 54.2493 121.564C54.2345 121.289 54.1193 121.03 53.9256 120.835C53.732 120.641 53.4736 120.525 53.2001 120.51ZM55.9157 52.3202C55.7682 52.3157 55.6213 52.3407 55.4835 52.3939C55.3458 52.4472 55.2199 52.5274 55.1133 52.63C55.0285 52.8919 55.0285 53.1741 55.1133 53.4359C55.1402 53.6898 55.2529 53.9267 55.4326 54.1072C55.6123 54.2877 55.8481 54.4009 56.1008 54.4278C56.3029 54.4832 56.516 54.4832 56.718 54.4278L57.7055 53.684L56.7797 52.8781C56.6977 52.7213 56.5728 52.5913 56.4197 52.5035C56.2666 52.4156 56.0918 52.3737 55.9157 52.3822V52.3202Z" fill="#1E212B"/>
<path d="M81.575 59.9449C78.8617 59.9847 76.2371 60.9217 74.1072 62.6106C72.2261 64.1487 70.004 65.2096 67.6288 65.7039C65.2536 66.1982 62.7949 66.1112 60.4602 65.4504C58.1255 64.7896 55.9832 63.5742 54.2144 61.907C52.4456 60.2398 51.1021 58.1696 50.2973 55.8712C49.4925 53.5728 49.25 51.1138 49.5903 48.7015C49.9305 46.2891 50.8435 43.9944 52.2523 42.0111C53.6611 40.0277 55.5243 38.4138 57.6846 37.3058C59.8449 36.1977 62.2389 35.628 64.6645 35.6446C68.5252 35.631 72.2411 37.1194 75.033 39.7979C77.2781 41.9097 80.2274 43.1036 83.303 43.1454C85.6754 43.1411 87.993 42.4291 89.9617 41.0996C91.9305 39.7701 93.4616 37.8831 94.3609 35.6781C95.2602 33.473 95.487 31.0492 95.0127 28.7145C94.5383 26.3798 93.3841 24.2392 91.6966 22.5644C87.7637 18.6812 83.0592 15.6756 77.8905 13.7439C72.7219 11.8121 67.2055 10.9978 61.702 11.3541C56.1986 11.7105 50.832 13.2294 45.9531 15.8118C41.0742 18.3942 36.7928 21.9818 33.3888 26.3401C29.9849 30.6983 27.5352 35.7292 26.1996 41.1036C24.864 46.478 24.6727 52.0751 25.6383 57.5288C26.6039 62.9826 28.7046 68.1702 31.803 72.7526C34.9014 77.335 38.9278 81.2091 43.6189 84.1214C35.9854 88.1394 29.8861 94.5763 26.2679 102.433C22.6497 110.289 21.715 119.126 23.609 127.571C25.503 136.015 30.1197 143.596 36.7423 149.135C43.365 154.674 51.6231 157.862 60.2345 158.205C68.846 158.547 77.3289 156.024 84.3664 151.027C91.404 146.031 96.6024 138.84 99.1546 130.572C101.707 122.304 101.47 113.421 98.481 105.302C95.4919 97.1829 89.9178 90.2823 82.6241 85.6712C84.9665 84.4298 87.1789 82.9551 89.2279 81.2697C91.1406 79.694 92.5205 77.5621 93.1778 75.1667C93.8352 72.7714 93.7376 70.2304 92.8988 67.8929C92.0599 65.5555 90.5209 63.5363 88.4932 62.1131C86.4655 60.6899 84.0487 59.9324 81.575 59.9449ZM76.8227 118.96C76.8227 121.964 75.936 124.9 74.2745 127.398C72.613 129.896 70.2514 131.842 67.4885 132.992C64.7255 134.141 61.6853 134.442 58.7522 133.856C55.819 133.27 53.1248 131.824 51.0101 129.7C48.8954 127.576 47.4553 124.869 46.8719 121.923C46.2884 118.977 46.5879 115.923 47.7323 113.148C48.8768 110.373 50.8148 108.001 53.3014 106.332C55.788 104.663 58.7114 103.772 61.702 103.772C65.7123 103.772 69.5584 105.373 72.3941 108.221C75.2297 111.069 76.8227 114.932 76.8227 118.96Z" fill="#A954F7"/>
</g>
<defs>
<clipPath id="clip0_120_483">
<rect width="611" height="175" fill="white"/>
</clipPath>
</defs>
</svg>
